<svg width="312" height="214" viewBox="0 0 312 214" fill="none" xmlns="http://www.w3.org/2000/svg">
<mask id="path-1-outside-1_9_67" maskUnits="userSpaceOnUse" x="1" y="149.424" width="311" height="64" fill="black">
<rect fill="white" x="1" y="149.424" width="311" height="64"/>
<path d="M2 212.152V159.16H10.736V150.424H37.808V159.16H46.64V186.04H37.808V194.776H33.584V202.552H42.224V212.152H32.624V203.512H23.792V194.776H11.696V212.152H2ZM11.696 185.08H36.848V160.12H11.696V185.08ZM58.25 212.152V167.8H66.986V159.16H75.626V150.424H85.418V159.16H94.058V167.8H102.89V212.152H93.098V194.776H67.946V212.152H58.25ZM67.946 185.08H93.098V168.76H84.458V160.12H76.586V168.76H67.946V185.08ZM123.236 212.152V203.512H114.5V159.16H123.236V150.424H150.308V159.16H159.14V177.4H150.308V185.08H159.14V203.512H150.308V212.152H123.236ZM124.196 202.552H149.348V186.04H131.876V176.536H149.348V160.12H124.196V202.552ZM179.486 212.152V203.512H170.75V159.16H179.486V150.424H206.558V159.16H215.39V177.4H206.558V185.08H215.39V203.512H206.558V212.152H179.486ZM180.446 202.552H205.598V186.04H188.126V176.536H205.598V160.12H180.446V202.552ZM227 212.152V202.552H235.736V160.12H227V150.424H254.168V160.12H245.336V202.552H254.168V212.152H227ZM283.189 212.152V160.12H275.509V168.76H265.812V159.16H274.548V150.424H301.621V159.16H310.453V168.76H300.66V160.12H292.98V212.152H283.189Z"/>
</mask>
<path d="M2 212.152V159.16H10.736V150.424H37.808V159.16H46.64V186.04H37.808V194.776H33.584V202.552H42.224V212.152H32.624V203.512H23.792V194.776H11.696V212.152H2ZM11.696 185.08H36.848V160.12H11.696V185.08ZM58.25 212.152V167.8H66.986V159.16H75.626V150.424H85.418V159.16H94.058V167.8H102.89V212.152H93.098V194.776H67.946V212.152H58.25ZM67.946 185.08H93.098V168.76H84.458V160.12H76.586V168.76H67.946V185.08ZM123.236 212.152V203.512H114.5V159.16H123.236V150.424H150.308V159.16H159.14V177.4H150.308V185.08H159.14V203.512H150.308V212.152H123.236ZM124.196 202.552H149.348V186.04H131.876V176.536H149.348V160.12H124.196V202.552ZM179.486 212.152V203.512H170.75V159.16H179.486V150.424H206.558V159.16H215.39V177.4H206.558V185.08H215.39V203.512H206.558V212.152H179.486ZM180.446 202.552H205.598V186.04H188.126V176.536H205.598V160.12H180.446V202.552ZM227 212.152V202.552H235.736V160.12H227V150.424H254.168V160.12H245.336V202.552H254.168V212.152H227ZM283.189 212.152V160.12H275.509V168.76H265.812V159.16H274.548V150.424H301.621V159.16H310.453V168.76H300.66V160.12H292.98V212.152H283.189Z" stroke="#EBAB34" stroke-width="2" mask="url(#path-1-outside-1_9_67)"/>
<path d="M0 212.152V159.16H8.736V150.424H35.808V159.16H44.64V186.04H35.808V194.776H31.584V202.552H40.224V212.152H30.624V203.512H21.792V194.776H9.696V212.152H0ZM9.696 185.08H34.848V160.12H9.696V185.08Z" fill="#EBAB34"/>
<path d="M56.25 212.152V167.8H64.986V159.16H73.626V150.424H83.418V159.16H92.058V167.8H100.89V212.152H91.098V194.776H65.946V212.152H56.25ZM65.946 185.08H91.098V168.76H82.458V160.12H74.586V168.76H65.946V185.08Z" fill="#EBAB34"/>
<path d="M121.236 212.152V203.512H112.5V159.16H121.236V150.424H148.308V159.16H157.14V177.4H148.308V185.08H157.14V203.512H148.308V212.152H121.236ZM122.196 202.552H147.348V186.04H129.876V176.536H147.348V160.12H122.196V202.552Z" fill="#EBAB34"/>
<path d="M177.486 212.152V203.512H168.75V159.16H177.486V150.424H204.558V159.16H213.39V177.4H204.558V185.08H213.39V203.512H204.558V212.152H177.486ZM178.446 202.552H203.598V186.04H186.126V176.536H203.598V160.12H178.446V202.552Z" fill="#EBAB34"/>
<path d="M225 212.152V202.552H233.736V160.12H225V150.424H252.168V160.12H243.336V202.552H252.168V212.152H225Z" fill="#EBAB34"/>
<path d="M281.189 212.152V160.12H273.509V168.76H263.812V159.16H272.548V150.424H299.621V159.16H308.453V168.76H298.66V160.12H290.98V212.152H281.189Z" fill="#EBAB34"/>
<mask id="path-3-inside-2_9_67" fill="white">
<path d="M203.867 74.6684H198.196V103.005H203.867V74.6684Z"/>
<path d="M198.196 103.005L192.525 103.005V108.695H198.196L198.196 103.005Z"/>
<path d="M198.196 63.3263H192.525V74.6684L198.196 74.6684L198.196 63.3263Z"/>
<path d="M192.525 12.3422H186.817V63.3263L192.525 63.3263L192.525 12.3422Z"/>
<path d="M192.525 108.695L181.147 108.695V114.348H192.525L192.525 108.695Z"/>
<path d="M186.817 6.68968H181.147V12.3422L186.817 12.3422L186.817 6.68968Z"/>
<path d="M181.147 1H169.768V6.68969L181.147 6.68968V1Z"/>
<path d="M181.147 114.348L129.998 114.348V120H181.147V114.348Z"/>
<path d="M175.476 69.0159H169.768V74.6684H175.476V69.0159Z"/>
<path d="M181.147 17.9947H169.768V52.0213H181.147V17.9947Z"/>
<path d="M169.768 86.0106H164.097V91.6631H169.768V86.0106Z"/>
<path d="M169.768 6.68969L164.097 6.68968V12.3422H169.768L169.768 6.68969Z"/>
<path d="M164.097 12.3422L158.389 12.3422V57.6738H164.097L164.097 12.3422Z"/>
<path d="M164.097 91.6631H152.718V97.3528H164.097L164.097 91.6631Z"/>
<path d="M152.718 86.0106H158.389V80.3581H164.097V74.6684H147.047V80.3581H152.718V86.0106Z"/>
<path d="M158.389 57.6738L152.718 57.6737V63.3262H158.389L158.389 57.6738Z"/>
<path d="M152.718 12.3422H147.047V57.6738L152.718 57.6737L152.718 12.3422Z"/>
<path d="M147.047 6.68968H141.339V12.3422L147.047 12.3422L147.047 6.68968Z"/>
<path d="M141.339 69.0159H135.668V74.6684H141.339V69.0159Z"/>
<path d="M141.339 1H129.998V6.68969L141.339 6.68968L141.339 1Z"/>
<path d="M141.339 17.9947H129.998V52.0213H141.339V17.9947Z"/>
<path d="M129.998 108.695H118.619V114.348L129.998 114.348L129.998 108.695Z"/>
<path d="M129.998 6.68969L124.29 6.68968V12.3422H129.998L129.998 6.68969Z"/>
<path d="M124.29 12.3422L118.619 12.3422V63.3263H124.29L124.29 12.3422Z"/>
<path d="M118.619 103.005H112.911V108.695L118.619 108.695L118.619 103.005Z"/>
<path d="M118.619 63.3263L112.911 63.3263V74.6684H118.619L118.619 63.3263Z"/>
<path d="M112.911 74.6684L107.24 74.6684V103.005L112.911 103.005V74.6684Z"/>
</mask>
<path d="M203.867 74.6684H204.867V73.6684H203.867V74.6684ZM203.867 103.005V104.005H204.867V103.005H203.867ZM192.525 103.005V102.005H191.525V103.005H192.525ZM198.196 108.695V109.695H199.196V108.695H198.196ZM198.196 63.3263H199.196V62.3263H198.196V63.3263ZM192.525 74.6684H191.525V75.6685L192.525 75.6684L192.525 74.6684ZM192.525 12.3422H193.525V11.3422H192.525V12.3422ZM186.817 63.3263H185.817V64.3263H186.817V63.3263ZM181.147 108.695V107.695H180.147V108.695H181.147ZM192.525 114.348V115.348H193.525V114.348H192.525ZM186.817 6.68968L187.817 6.68968V5.68968H186.817V6.68968ZM181.147 12.3422H180.147V13.3422L181.147 13.3422V12.3422ZM181.147 1H182.147V0H181.147V1ZM169.768 1V0H168.768V1H169.768ZM129.998 120H128.998V121H129.998V120ZM181.147 120V121H182.147V120H181.147ZM175.476 69.0159H176.476V68.0159H175.476V69.0159ZM169.768 69.0159V68.0159H168.768V69.0159H169.768ZM169.768 74.6684H168.768V75.6684H169.768V74.6684ZM175.476 74.6684V75.6684H176.476V74.6684H175.476ZM181.147 17.9947H182.147V16.9947H181.147V17.9947ZM169.768 17.9947V16.9947H168.768V17.9947H169.768ZM169.768 52.0213H168.768V53.0213H169.768V52.0213ZM181.147 52.0213V53.0213H182.147V52.0213H181.147ZM169.768 86.0106H170.768V85.0106H169.768V86.0106ZM164.097 86.0106V85.0106H163.097V86.0106H164.097ZM169.768 91.6631V92.6631H170.768V91.6631H169.768ZM164.097 6.68968V5.68968L163.097 5.68968V6.68968H164.097ZM169.768 12.3422V13.3422H170.768V12.3422L169.768 12.3422ZM158.389 12.3422L158.389 11.3422L157.389 11.3422V12.3422H158.389ZM164.097 57.6738V58.6738H165.097V57.6738H164.097ZM152.718 91.6631V90.6631H151.718V91.6631H152.718ZM152.718 97.3528H151.718V98.3528H152.718V97.3528ZM164.097 97.3528V98.3528H165.097V97.3528H164.097ZM152.718 86.0106H151.718V87.0106H152.718V86.0106ZM158.389 86.0106V87.0106H159.389V86.0106H158.389ZM158.389 80.3581V79.3581H157.389V80.3581H158.389ZM164.097 80.3581V81.3581H165.097V80.3581H164.097ZM164.097 74.6684H165.097V73.6684H164.097V74.6684ZM147.047 74.6684V73.6684H146.047V74.6684H147.047ZM147.047 80.3581H146.047V81.3581H147.047V80.3581ZM152.718 80.3581H153.718V79.3581H152.718V80.3581ZM152.718 63.3262H151.718V64.3262H152.718V63.3262ZM158.389 63.3262V64.3262H159.389V63.3262H158.389ZM152.718 12.3422H153.718V11.3422H152.718V12.3422ZM147.047 57.6738H146.047V58.6738L147.047 58.6738L147.047 57.6738ZM147.047 6.68968L148.047 6.68968L148.047 5.68968H147.047V6.68968ZM141.339 12.3422H140.339V13.3422L141.339 13.3422L141.339 12.3422ZM141.339 69.0159H142.339V68.0159H141.339V69.0159ZM135.668 69.0159V68.0159H134.668V69.0159H135.668ZM135.668 74.6684H134.668V75.6684H135.668V74.6684ZM141.339 74.6684V75.6684H142.339V74.6684H141.339ZM141.339 1L142.339 0.999987L142.339 0H141.339V1ZM129.998 1V0H128.998V1H129.998ZM141.339 17.9947H142.339V16.9947H141.339V17.9947ZM129.998 17.9947V16.9947H128.998V17.9947H129.998ZM129.998 52.0213H128.998V53.0213H129.998V52.0213ZM141.339 52.0213V53.0213H142.339V52.0213H141.339ZM129.998 108.695H130.998V107.695H129.998V108.695ZM118.619 114.348H117.619V115.348H118.619L118.619 114.348ZM124.29 6.68968V5.68968L123.29 5.68968V6.68968H124.29ZM129.998 12.3422V13.3422H130.998L130.998 12.3422L129.998 12.3422ZM118.619 12.3422L118.619 11.3422L117.619 11.3422V12.3422H118.619ZM124.29 63.3263V64.3263H125.29L125.29 63.3263L124.29 63.3263ZM118.619 103.005L119.619 103.005L119.619 102.005H118.619V103.005ZM112.911 108.695H111.911V109.695H112.911L112.911 108.695ZM112.911 63.3263L112.911 62.3263H111.911V63.3263H112.911ZM118.619 74.6684V75.6684H119.619L119.619 74.6684L118.619 74.6684ZM107.24 74.6684L107.24 73.6684L106.24 73.6684V74.6684H107.24ZM107.24 103.005H106.24V104.005H107.24L107.24 103.005ZM203.867 74.6684V73.6684H198.196V74.6684V75.6684H203.867V74.6684ZM198.196 74.6684H197.196V103.005H198.196H199.196V74.6684H198.196ZM198.196 103.005V104.005H203.867V103.005V102.005H198.196V103.005ZM203.867 103.005H204.867V74.6684H203.867H202.867V103.005H203.867ZM198.196 103.005V102.005L192.525 102.005V103.005V104.005L198.196 104.005V103.005ZM192.525 103.005H191.525V108.695H192.525H193.525V103.005H192.525ZM192.525 108.695V109.695H198.196V108.695V107.695H192.525V108.695ZM198.196 108.695H199.196L199.196 103.005H198.196H197.196L197.196 108.695H198.196ZM198.196 63.3263V62.3263H192.525V63.3263V64.3263H198.196V63.3263ZM192.525 63.3263H191.525V74.6684H192.525H193.525V63.3263H192.525ZM192.525 74.6684L192.525 75.6684L198.196 75.6684L198.196 74.6684L198.196 73.6684L192.525 73.6684L192.525 74.6684ZM198.196 74.6684H199.196L199.196 63.3263H198.196H197.196L197.196 74.6684H198.196ZM192.525 12.3422V11.3422H186.817V12.3422V13.3422H192.525V12.3422ZM186.817 12.3422H185.817V63.3263H186.817H187.817V12.3422H186.817ZM186.817 63.3263V64.3263L192.525 64.3263V63.3263V62.3263L186.817 62.3263V63.3263ZM192.525 63.3263H193.525L193.525 12.3422H192.525H191.525L191.525 63.3263H192.525ZM192.525 108.695V107.695L181.147 107.695V108.695V109.695L192.525 109.695V108.695ZM181.147 108.695H180.147V114.348H181.147H182.147V108.695H181.147ZM181.147 114.348V115.348H192.525V114.348V113.348H181.147V114.348ZM192.525 114.348H193.525L193.525 108.695H192.525H191.525L191.525 114.348H192.525ZM186.817 6.68968V5.68968H181.147V6.68968V7.68968H186.817V6.68968ZM181.147 6.68968H180.147V12.3422H181.147H182.147V6.68968H181.147ZM181.147 12.3422V13.3422L186.817 13.3422V12.3422V11.3422L181.147 11.3422V12.3422ZM186.817 12.3422L187.817 12.3422L187.817 6.68968L186.817 6.68968L185.817 6.68968L185.817 12.3422L186.817 12.3422ZM181.147 1V0H169.768V1V2H181.147V1ZM169.768 1H168.768V6.68969H169.768H170.768V1H169.768ZM169.768 6.68969V7.68969L181.147 7.68968V6.68968V5.68968L169.768 5.68969V6.68969ZM181.147 6.68968H182.147V1H181.147H180.147V6.68968H181.147ZM181.147 114.348V113.348L129.998 113.348V114.348V115.348L181.147 115.348V114.348ZM129.998 114.348H128.998V120H129.998H130.998V114.348H129.998ZM129.998 120V121H181.147V120V119H129.998V120ZM181.147 120H182.147V114.348H181.147H180.147V120H181.147ZM175.476 69.0159V68.0159H169.768V69.0159V70.0159H175.476V69.0159ZM169.768 69.0159H168.768V74.6684H169.768H170.768V69.0159H169.768ZM169.768 74.6684V75.6684H175.476V74.6684V73.6684H169.768V74.6684ZM175.476 74.6684H176.476V69.0159H175.476H174.476V74.6684H175.476ZM181.147 17.9947V16.9947H169.768V17.9947V18.9947H181.147V17.9947ZM169.768 17.9947H168.768V52.0213H169.768H170.768V17.9947H169.768ZM169.768 52.0213V53.0213H181.147V52.0213V51.0213H169.768V52.0213ZM181.147 52.0213H182.147V17.9947H181.147H180.147V52.0213H181.147ZM169.768 86.0106V85.0106H164.097V86.0106V87.0106H169.768V86.0106ZM164.097 86.0106H163.097V91.6631H164.097H165.097V86.0106H164.097ZM164.097 91.6631V92.6631H169.768V91.6631V90.6631H164.097V91.6631ZM169.768 91.6631H170.768V86.0106H169.768H168.768V91.6631H169.768ZM169.768 6.68969V5.68969L164.097 5.68968V6.68968V7.68968L169.768 7.68969V6.68969ZM164.097 6.68968H163.097V12.3422H164.097H165.097V6.68968H164.097ZM164.097 12.3422V13.3422H169.768V12.3422V11.3422H164.097V12.3422ZM169.768 12.3422L170.768 12.3422L170.768 6.68969L169.768 6.68969L168.768 6.68969L168.768 12.3422L169.768 12.3422ZM164.097 12.3422L164.097 11.3422L158.389 11.3422L158.389 12.3422L158.389 13.3422L164.097 13.3422L164.097 12.3422ZM158.389 12.3422H157.389V57.6738H158.389H159.389V12.3422H158.389ZM158.389 57.6738V58.6738H164.097V57.6738V56.6738H158.389V57.6738ZM164.097 57.6738H165.097L165.097 12.3422H164.097H163.097L163.097 57.6738H164.097ZM164.097 91.6631V90.6631H152.718V91.6631V92.6631H164.097V91.6631ZM152.718 91.6631H151.718V97.3528H152.718H153.718V91.6631H152.718ZM152.718 97.3528V98.3528H164.097V97.3528V96.3528H152.718V97.3528ZM164.097 97.3528H165.097L165.097 91.6631H164.097H163.097L163.097 97.3528H164.097ZM152.718 86.0106V87.0106H158.389V86.0106V85.0106H152.718V86.0106ZM158.389 86.0106H159.389V80.3581H158.389H157.389V86.0106H158.389ZM158.389 80.3581V81.3581H164.097V80.3581V79.3581H158.389V80.3581ZM164.097 80.3581H165.097V74.6684H164.097H163.097V80.3581H164.097ZM164.097 74.6684V73.6684H147.047V74.6684V75.6684H164.097V74.6684ZM147.047 74.6684H146.047V80.3581H147.047H148.047V74.6684H147.047ZM147.047 80.3581V81.3581H152.718V80.3581V79.3581H147.047V80.3581ZM152.718 80.3581H151.718V86.0106H152.718H153.718V80.3581H152.718ZM158.389 57.6738L158.389 56.6738L152.718 56.6737L152.718 57.6737L152.718 58.6737L158.389 58.6738L158.389 57.6738ZM152.718 57.6737H151.718V63.3262H152.718H153.718V57.6737H152.718ZM152.718 63.3262V64.3262H158.389V63.3262V62.3262H152.718V63.3262ZM158.389 63.3262H159.389L159.389 57.6738H158.389H157.389L157.389 63.3262H158.389ZM152.718 12.3422V11.3422H147.047V12.3422V13.3422H152.718V12.3422ZM147.047 12.3422H146.047V57.6738H147.047H148.047V12.3422H147.047ZM147.047 57.6738L147.047 58.6738L152.718 58.6737L152.718 57.6737L152.718 56.6737L147.047 56.6738L147.047 57.6738ZM152.718 57.6737H153.718L153.718 12.3422H152.718H151.718L151.718 57.6737H152.718ZM147.047 6.68968V5.68968H141.339V6.68968V7.68968H147.047V6.68968ZM141.339 6.68968H140.339V12.3422H141.339H142.339V6.68968H141.339ZM141.339 12.3422L141.339 13.3422L147.047 13.3422L147.047 12.3422L147.047 11.3422L141.339 11.3422L141.339 12.3422ZM147.047 12.3422L148.047 12.3422L148.047 6.68968L147.047 6.68968L146.047 6.68969L146.047 12.3422L147.047 12.3422ZM141.339 69.0159V68.0159H135.668V69.0159V70.0159H141.339V69.0159ZM135.668 69.0159H134.668V74.6684H135.668H136.668V69.0159H135.668ZM135.668 74.6684V75.6684H141.339V74.6684V73.6684H135.668V74.6684ZM141.339 74.6684H142.339V69.0159H141.339H140.339V74.6684H141.339ZM141.339 1V0H129.998V1V2H141.339V1ZM129.998 1H128.998V6.68969H129.998H130.998V1H129.998ZM129.998 6.68969V7.68969L141.339 7.68968V6.68968V5.68968L129.998 5.68969V6.68969ZM141.339 6.68968L142.339 6.68967L142.339 0.999987L141.339 1L140.339 1.00001L140.339 6.68969L141.339 6.68968ZM141.339 17.9947V16.9947H129.998V17.9947V18.9947H141.339V17.9947ZM129.998 17.9947H128.998V52.0213H129.998H130.998V17.9947H129.998ZM129.998 52.0213V53.0213H141.339V52.0213V51.0213H129.998V52.0213ZM141.339 52.0213H142.339V17.9947H141.339H140.339V52.0213H141.339ZM129.998 108.695V107.695H118.619V108.695V109.695H129.998V108.695ZM118.619 108.695H117.619V114.348H118.619H119.619V108.695H118.619ZM118.619 114.348L118.619 115.348L129.998 115.348V114.348V113.348L118.619 113.348L118.619 114.348ZM129.998 114.348H130.998L130.998 108.695H129.998H128.998L128.998 114.348H129.998ZM129.998 6.68969V5.68969L124.29 5.68968V6.68968V7.68968L129.998 7.68969V6.68969ZM124.29 6.68968H123.29V12.3422H124.29H125.29V6.68968H124.29ZM124.29 12.3422V13.3422H129.998V12.3422V11.3422H124.29V12.3422ZM129.998 12.3422L130.998 12.3422L130.998 6.68966L129.998 6.68969L128.998 6.68971L128.998 12.3422L129.998 12.3422ZM124.29 12.3422L124.29 11.3422L118.619 11.3422L118.619 12.3422L118.619 13.3422L124.29 13.3422L124.29 12.3422ZM118.619 12.3422H117.619V63.3263H118.619H119.619V12.3422H118.619ZM118.619 63.3263V64.3263H124.29V63.3263V62.3263H118.619V63.3263ZM124.29 63.3263L125.29 63.3263L125.29 12.3422L124.29 12.3422L123.29 12.3422L123.29 63.3263L124.29 63.3263ZM118.619 103.005V102.005H112.911V103.005V104.005H118.619V103.005ZM112.911 103.005H111.911V108.695H112.911H113.911V103.005H112.911ZM112.911 108.695L112.911 109.695L118.619 109.695L118.619 108.695L118.619 107.695L112.911 107.695L112.911 108.695ZM118.619 108.695L119.619 108.695L119.619 103.005L118.619 103.005L117.619 103.005L117.619 108.695L118.619 108.695ZM118.619 63.3263L118.619 62.3263L112.911 62.3263L112.911 63.3263L112.911 64.3263L118.619 64.3263L118.619 63.3263ZM112.911 63.3263H111.911V74.6684H112.911H113.911V63.3263H112.911ZM112.911 74.6684V75.6684H118.619V74.6684V73.6684H112.911V74.6684ZM118.619 74.6684L119.619 74.6684L119.619 63.3262L118.619 63.3263L117.619 63.3263L117.619 74.6685L118.619 74.6684ZM112.911 74.6684L112.911 73.6684L107.24 73.6684L107.24 74.6684L107.24 75.6684L112.911 75.6684L112.911 74.6684ZM107.24 74.6684H106.24V103.005H107.24H108.24V74.6684H107.24ZM107.24 103.005L107.24 104.005L112.911 104.005L112.911 103.005L112.911 102.005L107.24 102.005L107.24 103.005ZM112.911 103.005H113.911V74.6684H112.911H111.911V103.005H112.911Z" fill="#EBAB34" mask="url(#path-3-inside-2_9_67)"/>
<path d="M201.867 73.6684H196.196V102.005H201.867V73.6684Z" fill="#EBAB34"/>
<path d="M196.196 102.005L190.525 102.005V107.695H196.196L196.196 102.005Z" fill="#EBAB34"/>
<path d="M196.196 62.3263H190.525V73.6684L196.196 73.6684L196.196 62.3263Z" fill="#EBAB34"/>
<path d="M190.525 11.3422H184.817V62.3263L190.525 62.3263L190.525 11.3422Z" fill="#EBAB34"/>
<path d="M190.525 107.695L179.147 107.695V113.348H190.525L190.525 107.695Z" fill="#EBAB34"/>
<path d="M184.817 5.68968H179.147V11.3422L184.817 11.3422L184.817 5.68968Z" fill="#EBAB34"/>
<path d="M179.147 0H167.768V5.68969L179.147 5.68968V0Z" fill="#EBAB34"/>
<path d="M179.147 113.348L127.998 113.348V119H179.147V113.348Z" fill="#EBAB34"/>
<path d="M173.476 68.0159H167.768V73.6684H173.476V68.0159Z" fill="#EBAB34"/>
<path d="M179.147 16.9947H167.768V51.0213H179.147V16.9947Z" fill="#EBAB34"/>
<path d="M167.768 85.0106H162.097V90.6631H167.768V85.0106Z" fill="#EBAB34"/>
<path d="M167.768 5.68969L162.097 5.68968V11.3422H167.768L167.768 5.68969Z" fill="#EBAB34"/>
<path d="M162.097 11.3422L156.389 11.3422V56.6738H162.097L162.097 11.3422Z" fill="#EBAB34"/>
<path d="M162.097 90.6631H150.718V96.3528H162.097L162.097 90.6631Z" fill="#EBAB34"/>
<path d="M150.718 85.0106H156.389V79.3581H162.097V73.6684H145.047V79.3581H150.718V85.0106Z" fill="#EBAB34"/>
<path d="M156.389 56.6738L150.718 56.6737V62.3262H156.389L156.389 56.6738Z" fill="#EBAB34"/>
<path d="M150.718 11.3422H145.047V56.6738L150.718 56.6737L150.718 11.3422Z" fill="#EBAB34"/>
<path d="M145.047 5.68968H139.339V11.3422L145.047 11.3422L145.047 5.68968Z" fill="#EBAB34"/>
<path d="M139.339 68.0159H133.668V73.6684H139.339V68.0159Z" fill="#EBAB34"/>
<path d="M139.339 0H127.998V5.68969L139.339 5.68968L139.339 0Z" fill="#EBAB34"/>
<path d="M139.339 16.9947H127.998V51.0213H139.339V16.9947Z" fill="#EBAB34"/>
<path d="M127.998 107.695H116.619V113.348L127.998 113.348L127.998 107.695Z" fill="#EBAB34"/>
<path d="M127.998 5.68969L122.29 5.68968V11.3422H127.998L127.998 5.68969Z" fill="#EBAB34"/>
<path d="M122.29 11.3422L116.619 11.3422V62.3263H122.29L122.29 11.3422Z" fill="#EBAB34"/>
<path d="M116.619 102.005H110.911V107.695L116.619 107.695L116.619 102.005Z" fill="#EBAB34"/>
<path d="M116.619 62.3263L110.911 62.3263V73.6684H116.619L116.619 62.3263Z" fill="#EBAB34"/>
<path d="M110.911 73.6684L105.24 73.6684V102.005L110.911 102.005V73.6684Z" fill="#EBAB34"/>
</svg>
