<svg width="64" height="64" viewBox="0 0 64 64" fill="none" xmlns="http://www.w3.org/2000/svg">
  <rect width="64" height="64" rx="16" fill="#0F172A"/>
  <g transform="translate(12 8) scale(1.5)" fill="#F8FAFC">
    <path d="M25.9 19.81H24.38V27.43H25.9V19.81Z"/>
    <path d="M24.38 27.43H22.86V28.96H24.38V27.43Z"/>
    <path d="M24.38 16.76H22.86V19.81H24.38V16.76Z"/>
    <path d="M22.86 3.05H21.33V16.76H22.86V3.05Z"/>
    <path d="M22.86 28.96H19.81V30.48H22.86V28.96Z"/>
    <path d="M21.33 1.53H19.81V3.05H21.33V1.53Z"/>
    <path d="M19.81 0H16.76V1.53H19.81V0Z"/>
    <path d="M19.81 30.48H6.09998V32H19.81V30.48Z"/>
    <path d="M18.29 18.29H16.76V19.81H18.29V18.29Z"/>
    <path d="M19.81 4.57H16.76V13.72H19.81V4.57Z"/>
    <path d="M16.76 22.86H15.24V24.38H16.76V22.86Z"/>
    <path d="M16.76 1.53H15.24V3.05H16.76V1.53Z"/>
    <path d="M15.24 3.05H13.71V15.24H15.24V3.05Z"/>
    <path d="M15.24 24.38H12.19V25.91H15.24V24.38Z"/>
    <path d="M12.19 22.86H13.71V21.34H15.24V19.81H10.67V21.34H12.19V22.86Z"/>
    <path d="M13.71 15.24H12.19V16.76H13.71V15.24Z"/>
    <path d="M12.19 3.05H10.67V15.24H12.19V3.05Z"/>
    <path d="M10.67 1.53H9.14001V3.05H10.67V1.53Z"/>
    <path d="M9.13999 18.29H7.62V19.81H9.13999V18.29Z"/>
    <path d="M9.13998 0H6.09998V1.53H9.13998V0Z"/>
    <path d="M9.13998 4.57H6.09998V13.72H9.13998V4.57Z"/>
    <path d="M6.09999 28.96H3.04999V30.48H6.09999V28.96Z"/>
    <path d="M6.10001 1.53H4.57001V3.05H6.10001V1.53Z"/>
    <path d="M4.56999 3.05H3.04999V16.76H4.56999V3.05Z"/>
    <path d="M3.05002 27.43H1.52002V28.96H3.05002V27.43Z"/>
    <path d="M3.05002 16.76H1.52002V19.81H3.05002V16.76Z"/>
    <path d="M1.52 19.81H0V27.43H1.52V19.81Z"/>
  </g>
</svg>
